<svg xmlns="http://www.w3.org/2000/svg" viewBox="0 0 512.004 512.004"><path d="M499.755 495.912V395.746a33.63 33.63 0 0 0-14.34-27.544l-63.2-44.245c-4.236-2.967-9.288-4.556-14.465-4.556h-50.886l.84 143.815c.3 14.987 10.103 28.116 24.375 32.697h117.673z" fill="#fec9a3"/><path d="M449.324 495.912h-58.837c-18.567 0-33.62-15.054-33.62-33.62v-33.62h58.837l33.62 67.242z" fill="#fabd91"/><path d="M230.786 67.242c-5.8.008-11.515 1.22-16.8 3.547V8.405H62.68c-27.855 0-50.432 22.577-50.432 50.432v151.295h62.384c-9.33-21.25.328-46.044 21.585-55.374 21.25-9.33 46.044.328 55.374 21.585a42.01 42.01 0 0 1 0 33.798h62.384v-62.384c21.25 9.33 46.044-.328 55.374-21.585s-.328-46.044-21.585-55.374c-5.345-2.362-11.128-3.564-16.978-3.556z" fill="#88b337"/><path d="M415.702 58.837c0-27.855-22.577-50.432-50.432-50.432H213.975V70.8c21.25-9.33 46.044.328 55.374 21.585 9.33 21.25-.328 46.044-21.585 55.374a42.01 42.01 0 0 1-33.798 0v62.384h62.384c-9.33 21.25.328 46.044 21.585 55.374 21.25 9.33 46.044-.328 55.374-21.585a42.01 42.01 0 0 0 0-33.798h62.384l.01-151.286z" fill="#e8594a"/><path d="M415.702 63.636c-48.045 66.84-134.78 104.806-201.727 125.24v21.257h62.384c-9.33 21.25.328 46.044 21.585 55.374 21.25 9.33 46.044-.328 55.374-21.585a42.01 42.01 0 0 0 0-33.798h62.384V63.636z" fill="#d65245"/><path d="M197.165 277.375c5.8.008 11.515 1.22 16.8 3.547v-70.8H151.59c9.33-21.25-.328-46.044-21.585-55.374s-46.044.328-55.374 21.585a42.01 42.01 0 0 0 0 33.798H12.248v151.295c0 27.855 22.577 50.432 50.432 50.432h151.295V357.9c-21.25 9.33-46.044-.328-55.374-21.585-9.33-21.25.328-46.044 21.585-55.374a41.85 41.85 0 0 1 16.98-3.556z" fill="#fdb62f"/><path d="M12.248 361.428c0 27.855 22.577 50.432 50.432 50.432h151.295v-53.98c-21.148 9.313-45.842-.277-55.156-21.425a41.91 41.91 0 0 1-3.53-15.558 367.63 367.63 0 0 1-143.041 31.814c0-.001 0 8.716 0 8.716z" fill="#ffa719"/><path d="M437.682 385.803l-53.18-142.05-58.408 21.997c16.28 16.584 16.03 43.228-.555 59.5s-43.228 16.03-59.5-.555c-8.288-8.447-12.642-19.988-11.986-31.806l-58.4 21.997 24.88 66.477c-5.774-.328-11.557.555-16.98 2.6-21.702 8.422-32.46 32.84-24.04 54.542 8.28 21.324 32.058 32.16 53.584 24.392 5.42-2.042 10.364-5.203 14.5-9.263l18.962 50.692 141.646-53.348c26.115-9.884 39.303-39.034 29.477-65.166z" fill="#4398d1"/><path d="M410.256 312.55c-57.997 86.743-166.72 117.035-230.397 127.466 8.935 21.257 33.4 31.242 54.668 22.308 4.867-2.043 9.305-5 13.07-8.7l18.962 50.692 141.646-53.348c26.098-9.885 39.278-39.017 29.477-65.14l-27.426-73.278z" fill="#3e8fc9"/><path d="M230.786 67.242c-5.8.008-11.515 1.22-16.8 3.547V58.593c-62.938 57.938-148.2 89.937-201.727 105.53v46h62.384c-9.33-21.25.328-46.044 21.585-55.374 21.25-9.33 46.044.328 55.374 21.585a42.01 42.01 0 0 1 0 33.798h62.384v-62.384c21.25 9.33 46.044-.328 55.374-21.585s-.33-46.043-21.586-55.373a41.83 41.83 0 0 0-16.978-3.557z" fill="#80a834"/><path d="M399.043 386.795c-8.044-8.204-21.215-8.338-29.42-.294s-8.338 21.215-.294 29.42c.1.1.193.202.294.294l29.267 29.267c0 27.855 22.577 50.432 50.432 50.432h50.432v-8.405L399.043 386.795z" fill="#fec9a3"/><path d="M197.165 268.272c-27.855-.008-50.44 22.56-50.45 50.415a50.44 50.44 0 0 0 30.276 46.246l6.724-15.398c-17.03-7.405-24.83-27.216-17.416-44.245a33.61 33.61 0 0 1 30.864-20.206 33.24 33.24 0 0 1 13.448 2.841 8.41 8.41 0 0 0 11.07-4.346 8.39 8.39 0 0 0 .698-3.354V218.54h42.74a49.41 49.41 0 0 0-.714 8.405c.05 23.947 16.895 44.582 40.345 49.423l3.362-16.466c-15.634-3.236-26.863-16.987-26.897-32.957a33.24 33.24 0 0 1 2.841-13.448 8.41 8.41 0 0 0-4.346-11.07 8.33 8.33 0 0 0-3.354-.698h-53.98v-42.74a49.41 49.41 0 0 0 8.405.714c27.855 0 50.432-22.577 50.432-50.432S258.636 58.84 230.78 58.84c-2.816 0-5.632.235-8.405.714V16.8h142.9c23.2.025 42 18.828 42.026 42.026v142.9h-53.98a8.4 8.4 0 0 0-8.397 8.414c0 1.152.235 2.295.698 3.354a33.24 33.24 0 0 1 2.841 13.448h16.8c0-2.816-.235-5.632-.714-8.405h51.14a8.41 8.41 0 0 0 8.405-8.405V58.837C424.066 26.36 397.75.042 365.27 0H62.68C30.202.042 3.885 26.36 3.843 58.837V360.73c.042 32.478 26.36 58.795 58.837 58.837h92.458v-16.8H62.68c-23.2-.025-42-18.828-42.026-42.026V218.538h53.98c4.984-.36 8.725-4.7 8.363-9.683a8.9 8.9 0 0 0-.664-2.791c-7.472-16.995.252-36.832 17.256-44.304 16.996-7.472 36.832.252 44.304 17.256 3.8 8.624 3.8 18.433 0 27.057-2.076 4.346-.235 9.548 4.102 11.625a8.72 8.72 0 0 0 3.597.849h53.98v50.432a48.41 48.41 0 0 0-8.405-.707zM62.68 16.8h142.9v54a8.4 8.4 0 0 0 8.414 8.397c1.152 0 2.295-.235 3.354-.698a33.24 33.24 0 0 1 13.448-2.841c18.567 0 33.62 15.054 33.62 33.62s-15.054 33.62-33.62 33.62a33.24 33.24 0 0 1-13.448-2.841 8.41 8.41 0 0 0-11.07 4.346 8.39 8.39 0 0 0-.698 3.354v53.28h-42.682a49.4 49.4 0 0 0 .656-7.708v-.698c0-27.855-22.577-50.432-50.432-50.432S62.68 164.77 62.68 192.624v.698a49.29 49.29 0 0 0 .656 7.708H20.654V58.837c.033-23.2 18.828-42 42.026-42.026zm427.502 344.466l-70.663-48.658-27.14-72.512a8.4 8.4 0 0 0-10.809-4.942l-.462.185-54.634 24.165c-4.093 1.807-6.052 6.514-4.455 10.692.908 2.353 1.757 4.135 2.656 5.985s1.732 3.58 2.75 6.312c6.523 17.433-2.26 36.866-19.66 43.48-17.4 6.506-36.765-2.32-43.27-19.7a33.65 33.65 0 0 1-2.076-13.667 8.4 8.4 0 0 0-7.95-8.834 8.45 8.45 0 0 0-3.413.53l-58.4 21.997c-4.337 1.63-6.54 6.472-4.9 10.818l20.963 55.996a47.22 47.22 0 0 0-8.153 2.253c-26.157 9.75-39.454 38.85-29.713 65.007 9.75 26.157 38.85 39.454 65.007 29.713a50.57 50.57 0 0 0 7.783-3.682l15.03 40.144c1.63 4.346 6.472 6.548 10.818 4.925l83.297-31.385c5.228 11.246 14.86 19.837 26.62 23.77l5.312-15.97a28.36 28.36 0 0 1-16.071-13.734l25.342-9.54a58.66 58.66 0 0 0 55.349 39.009v-16.8c-23.148-.143-41.884-18.878-42.026-42.026 0-2.227-.883-4.37-2.463-5.943l-29.267-29.267c-4.337-4.38-4.833-11.27-1.152-16.214a12.24 12.24 0 0 1 9.036-4.925 12.03 12.03 0 0 1 9.649 3.606L451.8 450.73l11.885-11.885L446.3 421.48c4.278-12.793 4.018-26.67-.748-39.295l-15.752-42.07 50.793 34.974a25.26 25.26 0 0 1 10.75 20.66v108.57h16.8V395.746c-.012-13.734-6.728-26.602-17.982-34.47zM432.27 407.43l-27.284-27.275c-11.263-11.55-29.755-11.784-41.304-.52s-11.784 29.755-.52 41.304a15 15 0 0 0 .52.52l26.586 26.586-118.784 44.74-16.02-42.808c-1-2.656-3.27-4.64-6.043-5.253a8.27 8.27 0 0 0-1.824-.202c-2.202 0-4.312.857-5.884 2.396-13.5 12.75-34.773 12.146-47.532-1.353-12.75-13.5-12.146-34.773 1.353-47.532a33.58 33.58 0 0 1 10.977-6.926c2.673-.992 5.472-1.622 8.313-1.883a30.73 30.73 0 0 1 5.27-.177 8.4 8.4 0 0 0 8.834-7.95 8.47 8.47 0 0 0-.521-3.387l-21.955-58.618 40.026-15.07c5.253 27.35 31.688 45.27 59.04 40.018a50.43 50.43 0 0 0 8.204-2.311c26.065-9.885 39.236-38.975 29.477-65.1-.773-2.068-1.47-3.707-2.143-5.17l38.664-17.122 50.096 133.72a41.96 41.96 0 0 1 2.455 19.364z"/></svg>